<?xml version="1.0" standalone="no"?><!DOCTYPE svg PUBLIC "-//W3C//DTD SVG 1.1//EN" "http://www.w3.org/Graphics/SVG/1.1/DTD/svg11.dtd" ><svg xmlns="http://www.w3.org/2000/svg"><metadata></metadata><defs><font id="2.006;tyPL;Lato-Semibold;1944;TR4-4.0.1.5099" horiz-adv-x="1661"><font-face font-family="Lato Semibold" font-weight="600" font-stretch="normal" units-per-em="2000" panose-1="2 15 7 2 2 2 4 3 2 3" ascent="1974" descent="-426" x-height="3" bbox="13 -363 1540 1562" underline-thickness="194" underline-position="-297" unicode-range="U+0020-00a0" /><missing-glyph horiz-adv-x="1080" d="M244 1144 q53 45 123 76.5 q70 31.5 166 31.5 q67 0 120.5 -18 q53.5 -18 91.5 -51.5 q38 -33.5 58.5 -81 q20.5 -47.5 20.5 -105.5 q0 -55 -14.5 -94.5 q-14.5 -39.5 -36.5 -68.5 q-22 -29 -48 -51 q-26 -22 -49.5 -40.5 q-23.5 -18.5 -41 -36.5 q-17.5 -18 -21.5 -41 l-19 -100 l-147 0 l-15 116 q-5 36 7.5 62 q12.5 26 34 47 q21.5 21 47.5 40 q26 19 49.5 41 q23.5 22 39 49 q15.5 27 15.5 64 q0 43 -30 68 q-30 25 -81 25 q-38 0 -64.5 -7.5 q-26.5 -7.5 -45 -17 q-18.5 -9.5 -32.5 -17 q-14 -7.5 -27 -7.5 q-30 0 -44 25 l-57 92 ZM390 304 q0 26 9.5 49 q9.5 23 26 40 q16.5 17 39 26.5 q22.5 9.5 49.5 9.5 q25 0 47.5 -9.5 q22.5 -9.5 39 -26.5 q16.5 -17 26 -40 q9.5 -23 9.5 -49 q0 -26 -9.5 -49 q-9.5 -23 -26 -39.5 q-16.5 -16.5 -39 -26 q-22.5 -9.5 -47.5 -9.5 q-27 0 -49.5 9.5 q-22.5 9.5 -39 26 q-16.5 16.5 -26 39.5 q-9.5 23 -9.5 49 ZM43 1440 l993 0 l0 -1440 l-993 0 l0 1440 ZM101 62 l871 0 l0 1316 l-871 0 l0 -1316 Z" /><glyph glyph-name="nonbreakingspace" unicode="  " d="" /><glyph glyph-name="quotesingle" unicode="&#39;" d="M301 1440 l0 -288 l-19 -156 q-6 -38 -22 -59.5 q-16 -21.5 -53 -21.5 q-32 0 -49 21.5 q-17 21.5 -24 59.5 l-19 156 l0 288 l186 0 Z" /><glyph glyph-name="parenleft" unicode="(" d="M267 628 q0 -210 52 -410.5 q52 -200.5 151 -377.5 q9 -18 11 -32 q2 -14 -2 -24.5 q-4 -10.5 -11.5 -17.5 q-7.5 -7 -16.5 -13 l-95 -59 q-75 115 -127 228.5 q-52 113.5 -85 229 q-33 115.5 -48 234 q-15 118.5 -15 242.5 q0 123 15 241.5 q15 118.5 48 234 q33 115.5 85 229.5 q52 114 127 229 l95 -59 q9 -6 16.5 -13 q7.5 -7 11.5 -17.5 q4 -10.5 2 -24.5 q-2 -14 -11 -32 q-99 -178 -151 -378 q-52 -200 -52 -410 Z" /><glyph glyph-name="parenright" unicode=")" d="M274 628 q0 210 -52 410 q-52 200 -150 378 q-9 18 -11 32 q-2 14 1.5 24.5 q3.5 10.5 11 17.5 q7.5 7 16.5 13 l96 59 q74 -115 126 -229 q52 -114 85 -229.5 q33 -115.5 48 -234 q15 -118.5 15 -241.5 q0 -124 -15 -242.5 q-15 -118.5 -48 -234 q-33 -115.5 -85 -229 q-52 -113.5 -126 -228.5 l-96 59 q-9 6 -16.5 13 q-7.5 7 -11 17.5 q-3.5 10.5 -1.5 24.5 q2 14 11 32 q98 177 150 377.5 q52 200.5 52 410.5 Z" /><glyph glyph-name="comma" unicode="," d="M96 139 q0 26 9.5 49 q9.5 23 27 40 q17.5 17 42 26.5 q24.5 9.5 53.5 9.5 q34 0 60 -12.5 q26 -12.5 43.5 -34 q17.5 -21.5 26 -50 q8.5 -28.5 8.5 -60.5 q0 -46 -13.5 -97 q-13.5 -51 -40 -101.5 q-26.5 -50.5 -65 -98.5 q-38.5 -48 -87.5 -88 l-37 34 q-8 8 -11.5 15 q-3.5 7 -3.5 18 q0 17 17 32 q10 12 25.5 29.5 q15.5 17.5 31.5 41 q16 23.5 30 51 q14 27.5 20 58.5 l-5 0 q-29 0 -53 10.5 q-24 10.5 -41.5 29 q-17.5 18.5 -27 43.5 q-9.5 25 -9.5 55 Z" /><glyph glyph-name="period" unicode="." d="M98 124 q0 29 10.5 54.5 q10.5 25.5 29 44.5 q18.5 19 44 30 q25.5 11 54.5 11 q29 0 54.5 -11 q25.5 -11 44.5 -30 q19 -19 30 -44.5 q11 -25.5 11 -54.5 q0 -30 -11 -55 q-11 -25 -30 -44 q-19 -19 -44.5 -29.5 q-25.5 -10.5 -54.5 -10.5 q-29 0 -54.5 10.5 q-25.5 10.5 -44 29.5 q-18.5 19 -29 44 q-10.5 25 -10.5 55 Z" /><glyph glyph-name="semicolon" unicode=";" d="M126 0 l0 0 ZM132 139 q0 26 9.5 49 q9.5 23 27 40 q17.5 17 42 26.5 q24.5 9.5 53.5 9.5 q34 0 60 -12.5 q26 -12.5 43.5 -34 q17.5 -21.5 26 -50 q8.5 -28.5 8.5 -60.5 q0 -46 -13.5 -97 q-13.5 -51 -40 -101.5 q-26.5 -50.5 -65 -98.5 q-38.5 -48 -87.5 -88 l-37 34 q-8 8 -11.5 15 q-3.5 7 -3.5 18 q0 17 17 32 q10 12 25.5 29.5 q15.5 17.5 31.5 41 q16 23.5 30 51 q14 27.5 20 58.5 l-5 0 q-29 0 -53 10.5 q-24 10.5 -41.5 29 q-17.5 18.5 -27 43.5 q-9.5 25 -9.5 55 ZM126 853 q0 29 10.5 54.5 q10.5 25.5 29 44.5 q18.5 19 44 30 q25.5 11 54.5 11 q29 0 54.5 -11 q25.5 -11 44.5 -30 q19 -19 30 -44.5 q11 -25.5 11 -54.5 q0 -30 -11 -55 q-11 -25 -30 -44 q-19 -19 -44.5 -29.5 q-25.5 -10.5 -54.5 -10.5 q-29 0 -54.5 10.5 q-25.5 10.5 -44 29.5 q-18.5 19 -29 44 q-10.5 25 -10.5 55 Z" /><glyph glyph-name="C" unicode="c" d="M1171 321 q19 0 33 -15 l93 -101 q-88 -106 -216 -163.5 q-128 -57.5 -306 -57.5 q-158 0 -285.5 54.5 q-127.5 54.5 -217.5 152 q-90 97.5 -138.5 232.5 q-48.5 135 -48.5 297 q0 162 51.5 297.5 q51.5 135.5 145 233 q93.5 97.5 224 151.5 q130.5 54 287.5 54 q156 0 275.5 -50.5 q119.5 -50.5 207.5 -134.5 l-77 -109 q-8 -11 -19 -19 q-11 -8 -30 -8 q-20 0 -45.5 18.5 q-25.5 18.5 -65 41 q-39.5 22.5 -99 41 q-59.5 18.5 -148.5 18.5 q-103 0 -189 -36 q-86 -36 -148 -105 q-62 -69 -96.5 -168 q-34.5 -99 -34.5 -225 q0 -127 36 -226.5 q36 -99.5 99 -168 q63 -68.5 148 -104.5 q85 -36 183 -36 q60 0 107.5 6.5 q47.5 6.5 87.5 21 q40 14.5 75.5 36.5 q35.5 22 70.5 54 q20 18 40 18 Z" /><glyph glyph-name="E" unicode="e" d="M1069 1440 l0 -189 l-663 0 l0 -434 l530 0 l0 -183 l-530 0 l0 -445 l664 0 l-1 -189 l-898 0 l0 1440 l898 0 Z" /><glyph glyph-name="L" unicode="l" d="M405 196 l598 0 l0 -196 l-832 0 l0 1440 l234 0 l0 -1244 Z" /><glyph glyph-name="a" unicode="a" d="M789 0 q-31 0 -47 9.5 q-16 9.5 -27 38.5 l-21 83 q-39 -36 -77 -63 q-38 -27 -78.5 -46 q-40.5 -19 -87 -28.5 q-46.5 -9.5 -102.5 -9.5 q-62 0 -115.5 17 q-53.5 17 -92.5 51.5 q-39 34.5 -61.5 85.5 q-22.5 51 -22.5 120 q0 59 31.5 115 q31.5 56 104 100.5 q72.5 44.5 191 73.5 q118.5 29 292.5 33 l0 68 q0 110 -47 164 q-47 54 -138 54 q-62 0 -104 -15.5 q-42 -15.5 -73 -33.5 q-31 -18 -55 -33.5 q-24 -15.5 -51 -15.5 q-22 0 -37.5 11.5 q-15.5 11.5 -25.5 28.5 l-39 70 q173 161 412 161 q88 0 156.5 -28.5 q68.5 -28.5 115 -80.5 q46.5 -52 71 -123.5 q24.5 -71.5 24.5 -158.5 l0 -648 l-96 0 ZM414 134 q84 0 144.5 31.5 q60.5 31.5 117.5 90.5 l0 190 q-115 -5 -194 -19 q-79 -14 -128 -37 q-49 -23 -70.5 -53.5 q-21.5 -30.5 -21.5 -67.5 q0 -36 11.5 -61.5 q11.5 -25.5 32 -42 q20.5 -16.5 48 -24 q27.5 -7.5 60.5 -7.5 Z" /><glyph glyph-name="b" unicode="b" d="M131 0 l0 1480 l215 0 l0 -595 q63 69 141 110 q78 41 178 41 q89 0 160.5 -34.5 q71.5 -34.5 121.5 -99.5 q50 -65 77 -157.5 q27 -92.5 27 -208.5 q0 -124 -30.5 -225.5 q-30.5 -101.5 -87.5 -174 q-57 -72.5 -138 -112 q-81 -39.5 -181 -39.5 q-49 0 -89 9.5 q-40 9.5 -74 27 q-34 17.5 -62.5 43 q-28.5 25.5 -54.5 57.5 l-9 -79 q-5 -23 -18 -33 q-13 -10 -36 -10 l-140 0 ZM593 866 q-79 0 -137.5 -35.5 q-58.5 -35.5 -109.5 -101.5 l0 -473 q45 -58 98.5 -81.5 q53.5 -23.5 116.5 -23.5 q127 0 198 92 q71 92 71 285 q0 176 -61.5 257 q-61.5 81 -175.5 81 Z" /><glyph glyph-name="c" unicode="c" d="M852 820 q-10 -13 -19 -20 q-9 -7 -26 -7 q-17 0 -35.5 12 q-18.5 12 -44 26.5 q-25.5 14.5 -61.5 26.5 q-36 12 -90 12 q-70 0 -122.5 -25 q-52.5 -25 -88 -71.5 q-35.5 -46.5 -53 -113 q-17.5 -66.5 -17.5 -149.5 q0 -86 19 -153 q19 -67 54.5 -113 q35.5 -46 86 -70 q50.5 -24 113.5 -24 q62 0 101 15 q39 15 65 33 q26 18 44.5 33 q18.5 15 39.5 15 q26 0 40 -20 l61 -79 q-37 -45 -82 -76 q-45 -31 -95 -50.5 q-50 -19.5 -104 -28 q-54 -8.5 -109 -8.5 q-95 0 -177.5 35.5 q-82.5 35.5 -144 103 q-61.5 67.5 -97 165 q-35.5 97.5 -35.5 222.5 q0 113 32 209.5 q32 96.5 93.5 166.5 q61.5 70 152.5 109.5 q91 39.5 210 39.5 q111 0 195.5 -36 q84.5 -36 150.5 -102 l-57 -78 Z" /><glyph glyph-name="d" unicode="d" d="M867 0 q-43 0 -55 41 l-19 110 q-32 -37 -68 -67.5 q-36 -30.5 -77.5 -52.5 q-41.5 -22 -88.5 -34 q-47 -12 -101 -12 q-86 0 -156 34.5 q-70 34.5 -120 100.5 q-50 66 -77.5 163.5 q-27.5 97.5 -27.5 223.5 q0 114 30.5 211 q30.5 97 87.5 168.5 q57 71.5 138.5 112 q81.5 40.5 182.5 40.5 q90 0 153 -28.5 q63 -28.5 113 -79.5 l0 549 l215 0 l0 -1480 l-130 0 ZM530 158 q82 0 141 35 q59 35 111 101 l0 475 q-46 57 -99.5 80.5 q-53.5 23.5 -116.5 23.5 q-126 0 -197 -92.5 q-71 -92.5 -71 -273.5 q0 -94 16 -160.5 q16 -66.5 46 -108.5 q30 -42 73 -61 q43 -19 97 -19 Z" /><glyph glyph-name="e" unicode="e" d="M558 1036 q94 0 174 -30.5 q80 -30.5 138 -89.5 q58 -59 90.5 -144.5 q32.5 -85.5 32.5 -194.5 q0 -50 -11 -67 q-11 -17 -40 -17 l-655 0 q4 -87 27 -150.5 q23 -63.5 61.5 -105.5 q38.5 -42 92 -62.5 q53.5 -20.5 119.5 -20.5 q63 0 109 14.5 q46 14.5 80 32 q34 17.5 58 32 q24 14.5 44 14.5 q26 0 40 -20 l61 -79 q-38 -45 -86 -76 q-48 -31 -102 -50.5 q-54 -19.5 -111 -28 q-57 -8.5 -111 -8.5 q-106 0 -196.5 35.5 q-90.5 35.5 -157 104.5 q-66.5 69 -104 171 q-37.5 102 -37.5 235 q0 106 33.5 198 q33.5 92 96 160 q62.5 68 152 107.5 q89.5 39.5 202.5 39.5 ZM562 880 q-117 0 -184 -67 q-67 -67 -85 -188 l507 0 q0 54 -15.5 100.5 q-15.5 46.5 -45.5 81 q-30 34.5 -74.5 54 q-44.5 19.5 -102.5 19.5 Z" /><glyph glyph-name="f" unicode="f" d="M200 0 l0 849 l-100 14 q-25 5 -40.5 18 q-15.5 13 -15.5 37 l0 88 l156 0 l0 86 q0 87 25.5 156 q25.5 69 73 117 q47.5 48 115.5 73.5 q68 25.5 153 25.5 q35 0 66.5 -5 q31.5 -5 61.5 -15 l-4 -108 q-2 -27 -26.5 -32 q-24.5 -5 -61.5 -5 q-45 0 -81 -10.5 q-36 -10.5 -61.5 -35.5 q-25.5 -25 -39 -66 q-13.5 -41 -13.5 -102 l0 -79 l279 0 l0 -155 l-272 0 l0 -851 l-215 0 Z" /><glyph glyph-name="g" unicode="g" d="M495 1038 q66 0 123.5 -14.5 q57.5 -14.5 105.5 -40.5 l286 0 l0 -80 q0 -40 -48 -49 l-102 -17 q26 -60 26 -129 q0 -75 -29.5 -136 q-29.5 -61 -81.5 -104 q-52 -43 -124 -66 q-72 -23 -156 -23 q-32 0 -62.5 3.5 q-30.5 3.5 -59.5 9.5 q-29 -17 -43 -36 q-14 -19 -14 -39 q0 -33 29 -49 q29 -16 76.5 -23 q47.5 -7 108.5 -9 q61 -2 124 -7 q63 -5 124 -16.5 q61 -11.5 108.5 -38 q47.5 -26.5 76.5 -71.5 q29 -45 29 -117 q0 -66 -33 -129 q-33 -63 -95.5 -112 q-62.5 -49 -152.5 -78.5 q-90 -29.5 -205 -29.5 q-114 0 -198.5 22 q-84.5 22 -141 59.5 q-56.5 37.5 -84 86.5 q-27.5 49 -27.5 102 q0 72 45.5 123 q45.5 51 123.5 80 q-42 20 -67.5 55 q-25.5 35 -25.5 92 q0 22 8 46 q8 24 24.5 47.5 q16.5 23.5 41 44.5 q24.5 21 57.5 38 q-76 42 -119.5 112 q-43.5 70 -43.5 163 q0 76 29.5 137 q29.5 61 82.5 104 q53 43 125.5 66 q72.5 23 158.5 23 ZM794 -50 q0 33 -19.5 53.5 q-19.5 20.5 -52.5 32.5 q-33 12 -77.5 17 q-44.5 5 -93.5 8 q-49 3 -101 5.5 q-52 2.5 -100 9.5 q-48 -25 -78 -60 q-30 -35 -30 -81 q0 -30 15.5 -56 q15.5 -26 48 -45 q32.5 -19 83 -30 q50.5 -11 121.5 -11 q142 0 213 44 q71 44 71 113 ZM495 519 q100 0 150 51 q50 51 50 133 q0 84 -50 133 q-50 49 -150 49 q-99 0 -149.5 -49 q-50.5 -49 -50.5 -133 q0 -40 13 -74 q13 -34 38 -58.5 q25 -24.5 62.5 -38 q37.5 -13.5 86.5 -13.5 Z" /><glyph glyph-name="h" unicode="h" d="M131 0 l0 1480 l215 0 l0 -581 q63 62 138 99.5 q75 37.5 175 37.5 q84 0 147.5 -28 q63.5 -28 107 -79 q43.5 -51 65.5 -122.5 q22 -71.5 22 -157.5 l0 -649 l-214 0 l0 649 q0 103 -47.5 160 q-47.5 57 -144.5 57 q-72 0 -133.5 -33 q-61.5 -33 -115.5 -90 l0 -743 l-215 0 Z" /><glyph glyph-name="i" unicode="i" d="M355 1020 l0 -1020 l-215 0 l0 1020 l215 0 ZM391 1328 q0 -29 -11.5 -55 q-11.5 -26 -31.5 -45.5 q-20 -19.5 -46.5 -31 q-26.5 -11.5 -56.5 -11.5 q-29 0 -54.5 11.5 q-25.5 11.5 -44.5 31 q-19 19.5 -30.5 45.5 q-11.5 26 -11.5 55 q0 30 11.5 56 q11.5 26 30.5 45.5 q19 19.5 44.5 31 q25.5 11.5 54.5 11.5 q30 0 56.5 -11.5 q26.5 -11.5 46.5 -31 q20 -19.5 31.5 -45.5 q11.5 -26 11.5 -56 Z" /><glyph glyph-name="m" unicode="m" d="M131 0 l0 1020 l130 0 q44 0 56 -41 l14 -89 q28 32 58 58.5 q30 26.5 64.5 46 q34.5 19.5 74 30.5 q39.5 11 85.5 11 q49 0 90 -14 q41 -14 72.5 -40 q31.5 -26 54.5 -63 q23 -37 38 -83 q23 53 58 91 q35 38 78 62 q43 24 91.5 35.5 q48.5 11.5 98.5 11.5 q82 0 146.5 -26 q64.5 -26 109 -75.5 q44.5 -49.5 67.5 -121.5 q23 -72 23 -164 l0 -649 l-215 0 l0 649 q0 108 -46.5 162.5 q-46.5 54.5 -137.5 54.5 q-41 0 -77 -14 q-36 -14 -63 -41 q-27 -27 -42.5 -67.5 q-15.5 -40.5 -15.5 -94.5 l0 -649 l-215 0 l0 649 q0 112 -45 164.5 q-45 52.5 -132 52.5 q-60 0 -111 -30.5 q-51 -30.5 -94 -83.5 l0 -752 l-215 0 Z" /><glyph glyph-name="n" unicode="n" d="M131 0 l0 1020 l130 0 q44 0 56 -41 l15 -95 q32 34 67.5 62 q35.5 28 75.5 48 q40 20 85.5 31 q45.5 11 98.5 11 q84 0 147.5 -28 q63.5 -28 107 -79 q43.5 -51 65.5 -122.5 q22 -71.5 22 -157.5 l0 -649 l-214 0 l0 649 q0 103 -47.5 160 q-47.5 57 -144.5 57 q-72 0 -133.5 -33 q-61.5 -33 -115.5 -90 l0 -743 l-215 0 Z" /><glyph glyph-name="o" unicode="o" d="M572 1036 q113 0 204.5 -37 q91.5 -37 156 -105 q64.5 -68 99.5 -165 q35 -97 35 -218 q0 -121 -35 -218 q-35 -97 -99.5 -165.5 q-64.5 -68.5 -156 -105.5 q-91.5 -37 -204.5 -37 q-114 0 -205.5 37 q-91.5 37 -156.5 105.5 q-65 68.5 -100 165.5 q-35 97 -35 218 q0 121 35 218 q35 97 100 165 q65 68 156.5 105 q91.5 37 205.5 37 ZM572 153 q138 0 205.5 92.5 q67.5 92.5 67.5 264.5 q0 172 -67.5 265.5 q-67.5 93.5 -205.5 93.5 q-140 0 -208 -93.5 q-68 -93.5 -68 -265.5 q0 -172 68 -264.5 q68 -92.5 208 -92.5 Z" /><glyph glyph-name="r" unicode="r" d="M131 0 l0 1020 l125 0 q34 0 47 -12.5 q13 -12.5 18 -43.5 l12 -133 q49 97 117 152.5 q68 55.5 163 55.5 q33 0 62 -7.5 q29 -7.5 52 -22.5 l-15 -162 q-4 -17 -12.5 -23.5 q-8.5 -6.5 -22.5 -6.5 q-15 0 -43 5.5 q-28 5.5 -59 5.5 q-45 0 -80 -13 q-35 -13 -62 -38 q-27 -25 -48 -61 q-21 -36 -39 -82 l0 -634 l-215 0 Z" /><glyph glyph-name="s" unicode="s" d="M740 835 q-8 -14 -18 -20 q-10 -6 -25 -6 q-17 0 -37 10.5 q-20 10.5 -47 23.5 q-27 13 -63.5 23.5 q-36.5 10.5 -85.5 10.5 q-40 0 -72.5 -9.5 q-32.5 -9.5 -55 -27 q-22.5 -17.5 -34.5 -41 q-12 -23.5 -12 -50.5 q0 -36 22 -60 q22 -24 58 -41.5 q36 -17.5 82 -31.5 q46 -14 94 -30 q48 -16 94 -37 q46 -21 82 -51.5 q36 -30.5 58 -74 q22 -43.5 22 -105.5 q0 -72 -26 -133 q-26 -61 -76 -106 q-50 -45 -124.5 -70 q-74.5 -25 -170.5 -25 q-53 0 -102.5 9.5 q-49.5 9.5 -94 26 q-44.5 16.5 -83 39.5 q-38.5 23 -68.5 50 l50 82 q9 15 22.5 23.5 q13.5 8.5 33.5 8.5 q21 0 41.5 -13.5 q20.5 -13.5 48 -29.5 q27.5 -16 66.5 -29.5 q39 -13.5 97 -13.5 q48 0 83 11.5 q35 11.5 58 31.5 q23 20 34 45.5 q11 25.5 11 54.5 q0 39 -22 64 q-22 25 -58.5 43 q-36.5 18 -83 32 q-46.5 14 -94.5 30 q-48 16 -94.5 37 q-46.5 21 -83 53.5 q-36.5 32.5 -58.5 79 q-22 46.5 -22 113.5 q0 61 24.5 116 q24.5 55 72 97 q47.5 42 117 66.5 q69.5 24.5 160.5 24.5 q103 0 187 -33 q84 -33 141 -90 l-48 -78 Z" /><glyph glyph-name="t" unicode="t" d="M458 -16 q-127 0 -195.5 71.5 q-68.5 71.5 -68.5 201.5 l0 594 l-112 0 q-18 0 -31 11.5 q-13 11.5 -13 34.5 l0 87 l165 24 l47 295 q5 17 17 27.5 q12 10.5 32 10.5 l110 0 l0 -335 l283 0 l0 -155 l-283 0 l0 -579 q0 -55 27 -84 q27 -29 72 -29 q25 0 43 6.5 q18 6.5 31 14 q13 7.5 22.5 14 q9.5 6.5 18.5 6.5 q18 0 29 -20 l64 -105 q-50 -44 -118 -67.5 q-68 -23.5 -140 -23.5 Z" /><glyph glyph-name="u" unicode="u" d="M336 1020 l0 -649 q0 -103 47.5 -160 q47.5 -57 144.5 -57 q71 0 132.5 32.5 q61.5 32.5 115.5 89.5 l0 744 l215 0 l0 -1020 l-130 0 q-43 0 -55 41 l-16 95 q-65 -68 -143.5 -110 q-78.5 -42 -182.5 -42 q-84 0 -148 28 q-64 28 -107.5 79 q-43.5 51 -65.5 122.5 q-22 71.5 -22 157.5 l0 649 l215 0 Z" /><glyph glyph-name="v" unicode="v" d="M15 1020 l177 0 q25 0 41.5 -12.5 q16.5 -12.5 21.5 -29.5 l226 -594 q14 -43 25 -83.5 q11 -40.5 19 -82.5 q8 41 19 82 q11 41 26 84 l230 594 q6 18 22 30 q16 12 39 12 l168 0 l-410 -1020 l-194 0 l-410 1020 Z" /><glyph glyph-name="x" unicode="x" d="M367 525 l-339 495 l206 0 q25 0 36.5 -7.5 q11.5 -7.5 20.5 -22.5 l230 -361 q8 29 29 64 l195 293 q20 34 51 34 l197 0 l-339 -485 l353 -535 l-206 0 q-25 0 -39.5 13 q-14.5 13 -23.5 29 l-235 376 q-9 -35 -24 -58 l-213 -318 q-11 -16 -24.5 -29 q-13.5 -13 -35.5 -13 l-192 0 l353 525 Z" /><glyph glyph-name="y" unicode="y" d="M474 -290 q-11 -23 -26.5 -36 q-15.5 -13 -47.5 -13 l-159 0 l188 408 l-416 951 l187 0 q27 0 41.5 -12.5 q14.5 -12.5 21.5 -29.5 l243 -579 q18 -50 30 -100 q8 26 16.5 51 q8.5 25 18.5 50 l233 578 q7 18 23.5 30 q16.5 12 36.5 12 l172 0 l-562 -1310 Z" /><glyph glyph-name="braceleft" unicode="{" d="M190 416 q0 63 -31.5 102 q-31.5 39 -96.5 39 l0 127 q65 0 96.5 39 q31.5 39 31.5 102 q0 48 -7.5 96 q-7.5 48 -16 96 q-8.5 48 -16 96.5 q-7.5 48.5 -7.5 98.5 q0 73 21.5 133.5 q21.5 60.5 65 104 q43.5 43.5 109 67.5 q65.5 24 154.5 24 l53 0 l0 -97 q0 -23 -16.5 -33.5 q-16.5 -10.5 -30.5 -10.5 l-14 0 q-74 0 -114 -47 q-40 -47 -40 -128 q0 -56 6.5 -106.5 q6.5 -50.5 14 -99.5 q7.5 -49 14 -96.5 q6.5 -47.5 6.5 -95.5 q0 -75 -42 -131 q-42 -56 -113 -76 q71 -19 113 -75 q42 -56 42 -131 q0 -48 -6.5 -95.5 q-6.5 -47.5 -14 -96.5 q-7.5 -49 -14 -100 q-6.5 -51 -6.5 -106 q0 -81 40 -127.5 q40 -46.5 114 -46.5 l14 0 q14 0 30.5 -11 q16.5 -11 16.5 -34 l0 -97 l-53 0 q-89 0 -154.5 24 q-65.5 24 -109 67.5 q-43.5 43.5 -65 104 q-21.5 60.5 -21.5 133.5 q0 50 7.5 98.5 q7.5 48.5 16 96.5 q8.5 48 16 96 q7.5 48 7.5 96 Z" /><glyph glyph-name="braceright" unicode="}" d="M417 416 q0 -48 7.5 -96 q7.5 -48 16 -96 q8.5 -48 16 -96.5 q7.5 -48.5 7.5 -98.5 q0 -73 -21.5 -133.5 q-21.5 -60.5 -65 -104 q-43.5 -43.5 -109 -67.5 q-65.5 -24 -153.5 -24 l-54 0 l0 97 q0 23 17 34 q17 11 30 11 l15 0 q73 0 113.5 46.5 q40.5 46.5 40.5 127.5 q0 55 -6.5 106 q-6.5 51 -14.5 100 q-8 49 -14.5 96.5 q-6.5 47.5 -6.5 95.5 q0 37 11 70.5 q11 33.5 31 60.5 q20 27 48.5 46.5 q28.5 19.5 63.5 28.5 q-70 20 -112 76 q-42 56 -42 131 q0 48 6.5 95.5 q6.5 47.5 14.5 96.5 q8 49 14.5 99.5 q6.5 50.5 6.5 106.5 q0 81 -40.5 128 q-40.5 47 -113.5 47 l-15 0 q-13 0 -30 10.5 q-17 10.5 -17 33.5 l0 97 l54 0 q88 0 153.5 -24 q65.5 -24 109 -67.5 q43.5 -43.5 65 -104 q21.5 -60.5 21.5 -133.5 q0 -50 -7.5 -98.5 q-7.5 -48.5 -16 -96.5 q-8.5 -48 -16 -96 q-7.5 -48 -7.5 -96 q0 -63 31.5 -102 q31.5 -39 96.5 -39 l0 -127 q-65 0 -96.5 -39 q-31.5 -39 -31.5 -102 Z" /></font>
</defs>
</svg>
