<?xml version="1.0" standalone="no"?><!DOCTYPE svg PUBLIC "-//W3C//DTD SVG 1.1//EN" "http://www.w3.org/Graphics/SVG/1.1/DTD/svg11.dtd" ><svg xmlns="http://www.w3.org/2000/svg"><metadata></metadata><defs><font id="2.007;tyPL;Lato-ThinItalic;1944;TR4-4.0.1.5099" horiz-adv-x="1553"><font-face font-family="Lato Thin" font-weight="200" font-stretch="normal" units-per-em="2000" panose-1="2 15 3 2 2 2 4 3 2 3" ascent="1974" descent="-426" x-height="3" bbox="-42 -374 1410 1512" underline-thickness="194" underline-position="-297" unicode-range="U+0020-00a0" /><missing-glyph horiz-adv-x="1006" d="M269 1130 q19 19 42 36.5 q23 17.5 51.5 31.5 q28.5 14 62 22.5 q33.5 8.5 73.5 8.5 q49 0 93 -14.5 q44 -14.5 77 -42.5 q33 -28 52.5 -67.5 q19.5 -39.5 19.5 -88.5 q0 -55 -17 -94.5 q-17 -39.5 -43 -69.5 q-26 -30 -56.5 -53 q-30.5 -23 -56.5 -43 q-26 -20 -44.5 -40.5 q-18.5 -20.5 -19.5 -45.5 l-7 -120 l-35 0 l-3 124 q-1 29 16 51.5 q17 22.5 43 43.5 q26 21 56.5 43 q30.5 22 56.5 50 q26 28 43.5 64.5 q17.5 36.5 17.5 86.5 q0 41 -16.5 73 q-16.5 32 -43.5 54.5 q-27 22.5 -62.5 34 q-35.5 11.5 -73.5 11.5 q-48 0 -84 -13 q-36 -13 -60 -29 q-24 -16 -38 -29 q-14 -13 -18 -13 q-9 0 -13 6 l-13 22 ZM417 250 q0 26 17 44 q17 18 43 18 q26 0 43 -18 q17 -18 17 -44 q0 -25 -17 -42.5 q-17 -17.5 -43 -17.5 q-26 0 -43 17.5 q-17 17.5 -17 42.5 ZM49 1406 l908 0 l0 -1406 l-908 0 l0 1406 ZM75 26 l855 0 l0 1354 l-855 0 l0 -1354 Z" /><glyph glyph-name="nonbreakingspace" unicode="  " d="" /><glyph glyph-name="quotesingle" unicode="&#39;" d="M300 1406 l-36 -293 l-23 -153 q-3 -18 -19 -18 q-14 0 -16 18 l14 153 l37 293 l43 0 Z" /><glyph glyph-name="parenleft" unicode="(" d="M164 455 q0 -81 9 -167 q9 -86 27 -171.5 q18 -85.5 44.5 -168.5 q26.5 -83 62.5 -158 q6 -11 2.5 -17 q-3.5 -6 -8.5 -9 l-23 -13 q-43 89 -73.5 179 q-30.5 90 -50 178.5 q-19.5 88.5 -28.5 173 q-9 84.5 -9 163.5 q0 82 4.5 161 q4.5 79 18 158.5 q13.5 79.5 39 162.5 q25.5 83 67.5 174.5 q42 91.5 102.5 192.5 q60.5 101 145.5 218 l21 -13 q4 -3 5.5 -9.5 q1.5 -6.5 -5.5 -16.5 q-88 -122 -153.5 -236.5 q-65.5 -114.5 -109.5 -234.5 q-44 -120 -66 -253.5 q-22 -133.5 -22 -293.5 Z" /><glyph glyph-name="parenright" unicode=")" d="M332 808 q0 81 -9 167 q-9 86 -27 171.5 q-18 85.5 -45 168.5 q-27 83 -63 158 q-5 10 -2 16.5 q3 6.5 8 9.5 l25 13 q85 -180 122 -358 q37 -178 37 -337 q0 -82 -4.5 -160.5 q-4.5 -78.5 -18 -158 q-13.5 -79.5 -38.5 -162.5 q-25 -83 -66.5 -174.5 q-41.5 -91.5 -102.5 -193 q-61 -101.5 -145 -217.5 l-21 13 q-12 7 0 26 q88 122 153.5 242 q65.5 120 109 244.5 q43.5 124.5 65.5 256 q22 131.5 22 275.5 Z" /><glyph glyph-name="comma" unicode="," d="M67 65 q0 29 19 50 q19 21 51 21 q34 0 54 -23.5 q20 -23.5 20 -65.5 q0 -80 -36.5 -156.5 q-36.5 -76.5 -94.5 -134.5 l-9 9 q-3 2 -3.5 5.5 q-0.5 3.5 -0.5 5.5 q0 6 15.5 25 q15.5 19 34.5 49 q19 30 36 69 q17 39 20 85 q-16 -11 -39 -11 q-29 0 -48 20 q-19 20 -19 52 Z" /><glyph glyph-name="period" unicode="." d="M89 59 q0 32 21.5 54.5 q21.5 22.5 53.5 22.5 q32 0 54.5 -22.5 q22.5 -22.5 22.5 -54.5 q0 -32 -22.5 -53.5 q-22.5 -21.5 -54.5 -21.5 q-32 0 -53.5 21.5 q-21.5 21.5 -21.5 53.5 Z" /><glyph glyph-name="semicolon" unicode=";" d="M106 0 l0 0 ZM106 65 q0 29 19 50 q19 21 51 21 q34 0 54 -23.5 q20 -23.5 20 -65.5 q0 -80 -36.5 -156.5 q-36.5 -76.5 -94.5 -134.5 l-9 9 q-3 2 -3.5 5.5 q-0.5 3.5 -0.5 5.5 q0 6 15.5 25 q15.5 19 34.5 49 q19 30 36 69 q17 39 20 85 q-16 -11 -39 -11 q-29 0 -48 20 q-19 20 -19 52 ZM194 881 q0 32 21.5 54.5 q21.5 22.5 53.5 22.5 q32 0 54.5 -22.5 q22.5 -22.5 22.5 -54.5 q0 -32 -22.5 -53.5 q-22.5 -21.5 -54.5 -21.5 q-32 0 -53.5 21.5 q-21.5 21.5 -21.5 53.5 Z" /><glyph glyph-name="C" unicode="c" d="M661 30 q77 0 139 13 q62 13 109.5 33 q47.5 20 83 43 q35.5 23 59.5 43 q24 20 38.5 33 q14.5 13 20.5 13 q4 0 8 -4 l19 -22 q-46 -44 -97.5 -80.5 q-51.5 -36.5 -110.5 -62.5 q-59 -26 -127.5 -40.5 q-68.5 -14.5 -148.5 -14.5 q-119 0 -216 43.5 q-97 43.5 -165.5 123 q-68.5 79.5 -106 192 q-37.5 112.5 -37.5 250.5 q0 185 55 337.5 q55 152.5 152 262 q97 109.5 229 169.5 q132 60 285 60 q71 0 127 -10.5 q56 -10.5 103 -32 q47 -21.5 87.5 -53 q40.5 -31.5 79.5 -73.5 l-15 -19 q-7 -7 -18 -7 q-7 0 -17.5 11 q-10.5 11 -29 27.5 q-18.5 16.5 -45.5 36 q-27 19.5 -66 36 q-39 16.5 -90.5 27.5 q-51.5 11 -119.5 11 q-140 0 -260.5 -54.5 q-120.5 -54.5 -210 -156 q-89.5 -101.5 -140.5 -246 q-51 -144.5 -51 -323.5 q0 -131 35 -235.5 q35 -104.5 98 -178 q63 -73.5 151 -113 q88 -39.5 193 -39.5 Z" /><glyph glyph-name="E" unicode="e" d="M1075 1406 l-7 -46 l-710 0 l-77 -624 l599 0 l-6 -45 l-598 0 l-80 -645 l713 0 l-6 -46 l-766 0 l173 1406 l765 0 Z" /><glyph glyph-name="L" unicode="l" d="M197 47 l640 0 l-6 -47 l-694 0 l173 1406 l54 0 l-167 -1359 Z" /><glyph glyph-name="a" unicode="a" d="M750 0 l-22 0 q-12 0 -16 7.5 q-4 7.5 -4 15.5 l42 373 q-38 -90 -85.5 -165 q-47.5 -75 -102 -129 q-54.5 -54 -115.5 -84 q-61 -30 -125 -30 q-64 0 -110 25 q-46 25 -76 70 q-30 45 -44.5 107.5 q-14.5 62.5 -14.5 138.5 q0 85 22 167.5 q22 82.5 61.5 157 q39.5 74.5 94.5 137.5 q55 63 120.5 109 q65.5 46 139.5 72 q74 26 153 26 q57 0 104.5 -10.5 q47.5 -10.5 93.5 -36.5 l-116 -951 ZM334 31 q62 0 121.5 33 q59.5 33 114 94 q54.5 61 102.5 147 q48 86 87 192 l53 431 q-34 16 -71 23 q-37 7 -77 7 q-70 0 -137 -24 q-67 -24 -126.5 -66.5 q-59.5 -42.5 -109 -101 q-49.5 -58.5 -86 -127.5 q-36.5 -69 -56.5 -146.5 q-20 -77.5 -20 -157.5 q0 -71 12 -127 q12 -56 37 -95.5 q25 -39.5 63.5 -60.5 q38.5 -21 92.5 -21 Z" /><glyph glyph-name="b" unicode="b" d="M93 0 l175 1446 l50 0 l-104 -849 q40 90 89.5 164 q49.5 74 106.5 127 q57 53 118.5 82.5 q61.5 29.5 125.5 29.5 q65 0 113.5 -25 q48.5 -25 80.5 -70.5 q32 -45.5 48 -108.5 q16 -63 16 -138 q0 -74 -15 -152 q-15 -78 -44 -152.5 q-29 -74.5 -71 -141 q-42 -66.5 -95.5 -116.5 q-53.5 -50 -117.5 -79 q-64 -29 -138 -29 q-85 0 -158.5 40.5 q-73.5 40.5 -115.5 124.5 l-22 -132 q-2 -10 -5 -15.5 q-3 -5.5 -14 -5.5 l-23 0 ZM642 958 q-62 0 -124 -33 q-62 -33 -119 -93.5 q-57 -60.5 -107.5 -147 q-50.5 -86.5 -90.5 -193.5 l-35 -294 q23 -46 52 -78 q29 -32 63 -52 q34 -20 71 -29 q37 -9 76 -9 q68 0 126.5 27.5 q58.5 27.5 107 75 q48.5 47.5 85.5 110 q37 62.5 62.5 132 q25.5 69.5 38.5 142 q13 72.5 13 139.5 q0 70 -14 126 q-14 56 -42 95.5 q-28 39.5 -68.5 60.5 q-40.5 21 -94.5 21 Z" /><glyph glyph-name="c" unicode="c" d="M793 182 q-54 -60 -101.5 -98 q-47.5 -38 -93 -59 q-45.5 -21 -90.5 -29 q-45 -8 -95 -8 q-85 0 -146.5 29.5 q-61.5 29.5 -102 81.5 q-40.5 52 -60 123 q-19.5 71 -19.5 154 q0 78 16 155 q16 77 46 146.5 q30 69.5 73 129 q43 59.5 96.5 103 q53.5 43.5 116.5 68 q63 24.5 134 24.5 q48 0 87.5 -9.5 q39.5 -9.5 71.5 -27 q32 -17.5 57.5 -41.5 q25.5 -24 47.5 -54 l-14 -16 q-6 -6 -15 -6 q-8 0 -22 17.5 q-14 17.5 -40.5 38 q-26.5 20.5 -68.5 38 q-42 17.5 -106 17.5 q-92 0 -170.5 -49 q-78.5 -49 -135.5 -130.5 q-57 -81.5 -89.5 -187 q-32.5 -105.5 -32.5 -217.5 q0 -73 16.5 -136 q16.5 -63 51 -109.5 q34.5 -46.5 87.5 -73 q53 -26.5 127 -26.5 q58 0 103.5 12.5 q45.5 12.5 81.5 31.5 q36 19 62.5 41 q26.5 22 46 41 q19.5 19 33 31.5 q13.5 12.5 22.5 12.5 q9 0 15 -6 l10 -12 l0 0 Z" /><glyph glyph-name="d" unicode="d" d="M759 0 q-13 0 -17 7.5 q-4 7.5 -4 15.5 l42 372 q-39 -90 -89 -165 q-50 -75 -107 -129 q-57 -54 -119 -83.5 q-62 -29.5 -126 -29.5 q-65 0 -113.5 25.5 q-48.5 25.5 -80.5 71 q-32 45.5 -48 108.5 q-16 63 -16 138 q0 74 15 152 q15 78 44 152 q29 74 71 140.5 q42 66.5 95.5 116.5 q53.5 50 117.5 79 q64 29 138 29 q84 0 156 -39 q72 -39 115 -119 l75 604 l50 0 l-177 -1446 l-22 0 ZM351 30 q61 0 122.5 32.5 q61.5 32.5 118.5 93 q57 60.5 107 146.5 q50 86 90 192 l38 299 q-23 46 -52.5 77.5 q-29.5 31.5 -63 51 q-33.5 19.5 -71 28 q-37.5 8.5 -75.5 8.5 q-68 0 -127 -27.5 q-59 -27.5 -107 -74.5 q-48 -47 -85 -109 q-37 -62 -62.5 -131 q-25.5 -69 -38.5 -141.5 q-13 -72.5 -13 -139.5 q0 -71 14 -127 q14 -56 42 -96 q28 -40 68.5 -61 q40.5 -21 94.5 -21 Z" /><glyph glyph-name="e" unicode="e" d="M824 811 q0 -40 -10.5 -76 q-10.5 -36 -38.5 -68.5 q-28 -32.5 -76.5 -61 q-48.5 -28.5 -124.5 -53 q-76 -24.5 -182.5 -45 q-106.5 -20.5 -249.5 -35.5 q-4 -26 -5.5 -51.5 q-1.5 -25.5 -1.5 -51.5 q0 -79 18 -141.5 q18 -62.5 54 -106.5 q36 -44 90.5 -67.5 q54.5 -23.5 126.5 -23.5 q55 0 100 12.5 q45 12.5 81 31.5 q36 19 63 41.5 q27 22.5 47.5 41.5 q20.5 19 34.5 31.5 q14 12.5 24 12.5 q8 0 14 -6 l10 -12 q-48 -51 -93 -88 q-45 -37 -91 -61 q-46 -24 -94.5 -35 q-48.5 -11 -103.5 -11 q-81 0 -143 26.5 q-62 26.5 -104 75.5 q-42 49 -63 119.5 q-21 70.5 -21 158.5 q0 74 14.5 149.5 q14.5 75.5 43 145.5 q28.5 70 70 131.5 q41.5 61.5 96 107 q54.5 45.5 121.5 72 q67 26.5 145 26.5 q71 0 119 -19.5 q48 -19.5 77 -48.5 q29 -29 41 -62 q12 -33 12 -59 ZM573 960 q-89 0 -160 -38 q-71 -38 -124.5 -101 q-53.5 -63 -89 -144.5 q-35.5 -81.5 -51.5 -167.5 q139 16 240 35.5 q101 19.5 171.5 42.5 q70.5 23 113.5 49 q43 26 67 54 q24 28 32 58 q8 30 8 61 q0 23 -10.5 49.5 q-10.5 26.5 -35 49 q-24.5 22.5 -64 37.5 q-39.5 15 -97.5 15 Z" /><glyph glyph-name="f" unicode="f" d="M299 910 l-109 -896 l-40 -242 q-5 -23 -27 -23 l-16 0 l142 1160 l-139 6 q-15 1 -15 15 l2 18 l156 0 l18 141 q10 84 37.5 146.5 q27.5 62.5 67.5 104 q40 41.5 90.5 61.5 q50.5 20 108.5 20 q26 0 54 -5 q28 -5 48 -16 l-6 -24 q-2 -7 -8.5 -7 q-6.5 0 -18.5 2.5 q-12 2.5 -29 6 q-17 3.5 -40 3.5 q-47 0 -89 -16 q-42 -16 -75.5 -51 q-33.5 -35 -57 -90.5 q-23.5 -55.5 -33.5 -135.5 l-18 -140 l296 0 l-7 -38 l-292 0 Z" /><glyph glyph-name="g" unicode="g" d="M748 739 q-1 -59 -15.5 -106 q-14.5 -47 -36 -87 q-21.5 -40 -46.5 -73.5 q-25 -33.5 -46.5 -65.5 q-21.5 -32 -35.5 -64 q-14 -32 -14 -68 q-1 -28 12 -52.5 q13 -24.5 32.5 -48 q19.5 -23.5 42.5 -48 q23 -24.5 42.5 -53 q19.5 -28.5 32 -62 q12.5 -33.5 12.5 -75.5 q-1 -60 -32 -115.5 q-31 -55.5 -87.5 -99 q-56.5 -43.5 -135 -69.5 q-78.5 -26 -173.5 -26 q-75 0 -138 15 q-63 15 -108 44.5 q-45 29.5 -70.5 72.5 q-25.5 43 -25.5 99 q1 78 47.5 139 q46.5 61 128.5 100 q82 39 193 52.5 q111 13.5 240 -3.5 q-23 26 -39 54 q-16 28 -15 66 q0 18 3 36 q3 18 11 38 q8 20 22 43.5 q14 23.5 36 52.5 q-42 -30 -89.5 -46.5 q-47.5 -16.5 -98.5 -16.5 q-57 0 -104.5 18 q-47.5 18 -81.5 52 q-34 34 -53 84 q-19 50 -19 114 q0 68 23 132.5 q23 64.5 67.5 115 q44.5 50.5 108.5 81.5 q64 31 146 31 q99 0 167 -48 l253 0 l-1 -18 q-1 -5 -5.5 -10 q-4.5 -5 -16.5 -7 l-187 -6 q26 -32 40 -75 q14 -43 14 -97 ZM680 -67 q0 30 -6.5 54.5 q-6.5 24.5 -17.5 45.5 q-11 21 -25 39 q-14 18 -29 35 q-149 21 -260 7.5 q-111 -13.5 -185.5 -49.5 q-74.5 -36 -111.5 -89.5 q-37 -53.5 -38 -114.5 q0 -47 22 -83.5 q22 -36.5 61 -61 q39 -24.5 93.5 -37.5 q54.5 -13 120.5 -13 q85 0 154 23 q69 23 118 60.5 q49 37.5 76 85.5 q27 48 28 98 ZM406 409 q70 0 125 28.5 q55 28.5 93 75 q38 46.5 58 105.5 q20 59 20 119 q0 57 -16 99 q-16 42 -45 69.5 q-29 27.5 -70 41.5 q-41 14 -91 14 q-70 0 -124.5 -27 q-54.5 -27 -92 -72 q-37.5 -45 -57 -103 q-19.5 -58 -19.5 -119 q0 -115 59.5 -173 q59.5 -58 159.5 -58 Z" /><glyph glyph-name="h" unicode="h" d="M93 0 l175 1446 l51 0 l-98 -806 q40 84 91 150.5 q51 66.5 107 113 q56 46.5 116.5 71.5 q60.5 25 120.5 25 q64 0 108.5 -25 q44.5 -25 70 -72 q25.5 -47 32.5 -115.5 q7 -68.5 -3 -156.5 l-74 -631 l-51 0 l74 631 q19 155 -21 240.5 q-40 85.5 -150 85.5 q-58 0 -117.5 -29 q-59.5 -29 -115.5 -82.5 q-56 -53.5 -107 -129.5 q-51 -76 -92 -171 l-66 -545 l-51 0 Z" /><glyph glyph-name="i" unicode="i" d="M275 986 l-121 -986 l-50 0 l120 986 l51 0 ZM351 1342 q0 -27 -20.5 -47.5 q-20.5 -20.5 -45.5 -20.5 q-26 0 -45 20.5 q-19 20.5 -19 47.5 q0 28 19.5 48.5 q19.5 20.5 45.5 20.5 q25 0 45 -20.5 q20 -20.5 20 -48.5 Z" /><glyph glyph-name="m" unicode="m" d="M93 0 l119 990 l20 0 q11 0 16 -7 q5 -7 5 -16 l-37 -339 q39 87 86.5 156 q47.5 69 101 117 q53.5 48 112 73.5 q58.5 25.5 119.5 25.5 q61 0 99 -23 q38 -23 56.5 -67.5 q18.5 -44.5 21 -108.5 q2.5 -64 -6.5 -146 q38 87 87 152 q49 65 103.5 108 q54.5 43 111.5 64 q57 21 111 21 q64 0 104.5 -25 q40.5 -25 61 -72 q20.5 -47 23.5 -115.5 q3 -68.5 -8 -156.5 l-74 -631 l-50 0 l74 631 q9 78 8 138.5 q-1 60.5 -16.5 102 q-15.5 41.5 -48.5 63.5 q-33 22 -88 22 q-52 0 -107 -23 q-55 -23 -107.5 -70 q-52.5 -47 -101 -119 q-48.5 -72 -87.5 -170 l-68 -575 l-50 0 l74 631 q9 78 10 138.5 q1 60.5 -13 102 q-14 41.5 -45.5 63.5 q-31.5 22 -86.5 22 q-124 0 -228 -108.5 q-104 -108.5 -187 -311.5 l-64 -537 l-50 0 Z" /><glyph glyph-name="n" unicode="n" d="M93 0 l119 990 l20 0 q11 0 15.5 -7 q4.5 -7 4.5 -16 l-36 -344 q40 87 91 157 q51 70 108.5 119 q57.5 49 119 75 q61.5 26 123.5 26 q64 0 108.5 -25 q44.5 -25 70 -72 q25.5 -47 32.5 -115.5 q7 -68.5 -3 -156.5 l-75 -631 l-50 0 l74 631 q19 155 -21 240.5 q-40 85.5 -150 85.5 q-60 0 -120.5 -29.5 q-60.5 -29.5 -117.5 -84.5 q-57 -55 -108 -133.5 q-51 -78.5 -91 -175.5 l-63 -534 l-51 0 Z" /><glyph glyph-name="o" unicode="o" d="M436 30 q94 0 171.5 48.5 q77.5 48.5 132.5 128.5 q55 80 85.5 182.5 q30.5 102.5 30.5 210.5 q0 84 -20.5 150.5 q-20.5 66.5 -59 112.5 q-38.5 46 -93.5 70.5 q-55 24.5 -123 24.5 q-63 0 -118.5 -22 q-55.5 -22 -102 -60.5 q-46.5 -38.5 -83.5 -92 q-37 -53.5 -63 -116.5 q-26 -63 -39.5 -133.5 q-13.5 -70.5 -13.5 -143.5 q0 -84 20.5 -151 q20.5 -67 58.5 -113.5 q38 -46.5 93 -71 q55 -24.5 124 -24.5 ZM431 -12 q-79 0 -142.5 28 q-63.5 28 -108 80 q-44.5 52 -68.5 126.5 q-24 74.5 -24 167.5 q0 78 15.5 154 q15.5 76 44.5 143.5 q29 67.5 71 125 q42 57.5 95 99 q53 41.5 116 65 q63 23.5 135 23.5 q79 0 142.5 -28 q63.5 -28 108 -80 q44.5 -52 68.5 -126 q24 -74 24 -166 q0 -78 -15.5 -153.5 q-15.5 -75.5 -44.5 -143.5 q-29 -68 -71 -126 q-42 -58 -95 -100 q-53 -42 -116.5 -65.5 q-63.5 -23.5 -134.5 -23.5 Z" /><glyph glyph-name="r" unicode="r" d="M93 0 l119 990 l20 0 q11 0 16 -7 q5 -7 5 -16 l-37 -336 q41 106 91 183 q50 77 106 122.5 q56 45.5 117.5 57.5 q61.5 12 126.5 -13 l-9 -46 q-69 26 -132 10.5 q-63 -15.5 -118.5 -68 q-55.5 -52.5 -103.5 -140 q-48 -87.5 -87 -204.5 l-64 -533 l-50 0 Z" /><glyph glyph-name="s" unicode="s" d="M690 884 q-6 -9 -15 -9 q-8 0 -21.5 13.5 q-13.5 13.5 -38.5 29 q-25 15.5 -64 29 q-39 13.5 -97 13.5 q-55 0 -104 -19 q-49 -19 -86.5 -50.5 q-37.5 -31.5 -59.5 -74 q-22 -42.5 -22 -88.5 q0 -44 19.5 -74 q19.5 -30 51.5 -51.5 q32 -21.5 73 -37 q41 -15.5 84 -31 q43 -15.5 84 -33 q41 -17.5 73 -43 q32 -25.5 51.5 -62 q19.5 -36.5 19.5 -89.5 q0 -61 -24.5 -119 q-24.5 -58 -69.5 -103.5 q-45 -45.5 -108.5 -73 q-63.5 -27.5 -141.5 -27.5 q-48 0 -86.5 8.5 q-38.5 8.5 -70 24 q-31.5 15.5 -57.5 37.5 q-26 22 -50 49 l13 17 q7 10 17 10 q7 0 21.5 -17 q14.5 -17 41.5 -37 q27 -20 70.5 -37 q43.5 -17 108.5 -17 q65 0 118.5 22 q53.5 22 91.5 60 q38 38 59 88.5 q21 50.5 21 106.5 q0 48 -19.5 80 q-19.5 32 -51.5 54.5 q-32 22.5 -73 38.5 q-41 16 -84 31 q-43 15 -84 31.5 q-41 16.5 -73 41 q-32 24.5 -51.5 59.5 q-19.5 35 -19.5 86 q0 55 25 105.5 q25 50.5 68.5 89 q43.5 38.5 102.5 61.5 q59 23 127 23 q80 0 137.5 -24 q57.5 -24 105.5 -75 l-12 -17 Z" /><glyph glyph-name="t" unicode="t" d="M160 154 q0 6 0.5 15 q0.5 9 2 26.5 q1.5 17.5 5 45.5 q3.5 28 8.5 71 l72 596 l-142 0 q-15 0 -15 15 l3 18 l159 7 l60 380 q2 6 6.5 11.5 q4.5 5.5 11.5 5.5 l22 0 l-49 -397 l299 0 l-5 -40 l-299 0 l-72 -596 q-6 -41 -9 -67.5 q-3 -26.5 -4.5 -44 q-1.5 -17.5 -2 -26.5 q-0.5 -9 -0.5 -13 q0 -71 33.5 -102.5 q33.5 -31.5 85.5 -31.5 q36 0 64.5 12 q28.5 12 49.5 26 q21 14 34.5 26 q13.5 12 19.5 12 q6 0 10 -6 l9 -19 q-36 -42 -90 -68 q-54 -26 -109 -26 q-75 0 -116 41 q-41 41 -42 129 Z" /><glyph glyph-name="u" unicode="u" d="M252 986 l-75 -628 q-9 -78 -4 -138.5 q5 -60.5 25.5 -102.5 q20.5 -42 57.5 -64 q37 -22 92 -22 q59 0 119.5 29.5 q60.5 29.5 117.5 84.5 q57 55 108 133 q51 78 91 175 l64 533 l51 0 l-119 -986 l-21 0 q-12 0 -17 7 q-5 7 -5 16 l40 342 q-40 -87 -91 -157 q-51 -70 -109 -119 q-58 -49 -119.5 -75 q-61.5 -26 -122.5 -26 q-128 0 -179 97 q-51 97 -29 273 l74 628 l51 0 Z" /><glyph glyph-name="v" unicode="v" d="M93 986 l36 0 q10 0 15 -6 q5 -6 7 -12 l230 -853 q3 -15 5 -30 q2 -15 3 -31 q11 32 25 61 l439 853 q4 8 11 13 q7 5 15 5 l36 0 l-511 -986 l-41 0 l-270 986 Z" /><glyph glyph-name="x" unicode="x" d="M384 526 l-256 460 l39 0 q10 0 14.5 -2.5 q4.5 -2.5 8.5 -8.5 l230 -422 q2 5 5 9 q3 4 7 9 l317 403 q8 12 20 12 l44 0 l-367 -462 l285 -524 l-39 0 q-19 0 -26 15 l-258 481 q-5 -12 -11 -19 l-364 -464 q-5 -6 -10.5 -9.5 q-5.5 -3.5 -13.5 -3.5 l-42 0 l417 526 Z" /><glyph glyph-name="y" unicode="y" d="M224 -336 q-11 -21 -29 -21 l-34 0 l204 381 l-269 962 l37 0 q18 0 21 -18 l234 -844 q2 -12 4 -23.5 q2 -11.5 3 -23.5 q5 12 10.5 23.5 q5.5 11.5 11.5 23.5 l442 847 q8 15 23 15 l37 0 l-695 -1322 Z" /><glyph glyph-name="braceleft" unicode="{" d="M225 475 q0 60 -37 98 q-37 38 -97 38 l4 35 q37 0 69 14 q32 14 56 43 q24 29 37.5 72 q13.5 43 13.5 102 q0 33 -2.5 69.5 q-2.5 36.5 -5.5 74 q-3 37.5 -5.5 74 q-2.5 36.5 -2.5 70.5 q0 78 20.5 141.5 q20.5 63.5 57 108.5 q36.5 45 87 69 q50.5 24 110.5 24 l51 0 l-1 -21 q-5 -15 -20 -15 l-36 0 q-45 0 -85.5 -19 q-40.5 -19 -71 -56.5 q-30.5 -37.5 -48.5 -92 q-18 -54.5 -18 -126.5 q-1 -38 1.5 -78.5 q2.5 -40.5 5.5 -81 q3 -40.5 5.5 -80 q2.5 -39.5 1.5 -75.5 q0 -56 -15.5 -98 q-15.5 -42 -38.5 -70.5 q-23 -28.5 -51.5 -44.5 q-28.5 -16 -55.5 -21 q22 -5 42.5 -17.5 q20.5 -12.5 36.5 -32 q16 -19.5 25.5 -45.5 q9.5 -26 9.5 -58 q0 -62 -18 -122 q-18 -60 -39.5 -121 q-21.5 -61 -39.5 -123.5 q-18 -62.5 -18 -129.5 q0 -44 12 -79.5 q12 -35.5 33.5 -61.5 q21.5 -26 51.5 -40 q30 -14 67 -14 l38 0 q5 0 10 -3.5 q5 -3.5 4 -11.5 l-3 -20 l-52 0 q-49 0 -87.5 18 q-38.5 18 -65 49.5 q-26.5 31.5 -40.5 73.5 q-14 42 -14 91 q0 69 18.5 131 q18.5 62 40.5 121 q22 59 40.5 118.5 q18.5 59.5 18.5 122.5 Z" /><glyph glyph-name="braceright" unicode="}" d="M285 380 q0 -33 2.5 -69.5 q2.5 -36.5 5.5 -74 q3 -37.5 5.5 -74 q2.5 -36.5 2.5 -69.5 q0 -78 -20.5 -141.5 q-20.5 -63.5 -57 -108.5 q-36.5 -45 -87 -69 q-50.5 -24 -110.5 -24 l-52 0 l4 20 q0 8 5 11.5 q5 3.5 13 3.5 l35 0 q45 0 85.5 19 q40.5 19 71 56.5 q30.5 37.5 48.5 92 q18 54.5 19 126.5 q0 38 -2 78.5 q-2 40.5 -4.5 81 q-2.5 40.5 -4.5 80 q-2 39.5 -2 75.5 q1 56 16 98 q15 42 38 70.5 q23 28.5 51 44.5 q28 16 55 22 q-22 5 -42.5 17 q-20.5 12 -36.5 31 q-16 19 -26 45 q-10 26 -10 59 q0 62 18 122 q18 60 40 121 q22 61 40 123.5 q18 62.5 18 129.5 q0 44 -12 80 q-12 36 -33.5 61.5 q-21.5 25.5 -51.5 39.5 q-30 14 -67 14 l-36 0 q-7 0 -11.5 3.5 q-4.5 3.5 -2.5 11.5 l1 21 l52 0 q49 0 87 -18 q38 -18 64.5 -49.5 q26.5 -31.5 40.5 -74 q14 -42.5 14 -90.5 q0 -69 -18 -131 q-18 -62 -40 -121.5 q-22 -59.5 -40 -118.5 q-18 -59 -18 -123 q0 -60 36.5 -98 q36.5 -38 97.5 -38 l-5 -35 q-36 0 -68 -14 q-32 -14 -56 -43 q-24 -29 -38 -72.5 q-14 -43.5 -14 -101.5 Z" /></font>
</defs>
</svg>
